name C:\Users\u0101727\Documents\MyRepositories\upper-imu-dc\Results\main_mocap_tracking\Case_1\kinematics.mot
datacolumns 15
datarows 34
range 1.00000000 1.33000000
endheader 
time	ground_thorax_rot_x	ground_thorax_rot_y	ground_thorax_rot_z	clav_prot	clav_elev	scapula_abduction	scapula_elevation	scapula_upward_rot	scapula_winging	plane_elv	shoulder_elv	axial_rot	elbow_flexion	pro_sup	
          1.00000000	          1.75179013	         -6.07526935	         -9.73399863	        -20.60363917	         -7.65132440	         -7.93407382	         -6.66605618	         13.67042442	          6.32932374	         35.73909608	         27.40951357	        -12.29856162	          0.04824648	         34.31545826	
          1.01000000	          1.73985406	         -6.09152366	         -9.74725741	        -20.59171005	         -7.65391405	         -7.78405622	         -6.72335031	         13.89081508	          6.27866682	         37.00419930	         28.07191587	        -14.18407335	          0.05064203	         34.31516331	
          1.02000000	          1.72730076	         -6.10853978	         -9.76456208	        -20.57632821	         -7.64561680	         -7.61761183	         -6.77706293	         14.13187664	          6.21826635	         38.23957549	         28.73172358	        -16.06257998	          0.05386230	         34.31482939	
          1.03000000	          1.71372160	         -6.12706730	         -9.78574383	        -20.55572756	         -7.62668695	         -7.43168333	         -6.82715589	         14.39327826	          6.14806836	         39.44779883	         29.38709434	        -17.90376410	          0.05704348	         34.31454731	
          1.04000000	          1.69870712	         -6.14782454	         -9.81066061	        -20.52874050	         -7.59746454	         -7.22400275	         -6.87378454	         14.67506641	          6.06804121	         40.63195870	         30.03618999	        -19.67960193	          0.05932940	         34.31440258	
          1.05000000	          1.68186951	         -6.17145291	         -9.83919478	        -20.49473042	         -7.55856456	         -6.99303417	         -6.91739357	         14.97749238	          5.97828954	         41.79465442	         30.67736895	        -21.36568597	          0.06010563	         34.31445247	
          1.06000000	          1.66286792	         -6.19846736	         -9.87124616	        -20.45343297	         -7.51101417	         -6.73784705	         -6.95873637	         15.30071270	          5.87916457	         42.93700139	         31.30944768	        -22.94281267	          0.05913821	         34.31470768	
          1.07000000	          1.64143312	         -6.22921037	         -9.90672232	        -20.40474647	         -7.45630776	         -6.45793677	         -6.99882433	         15.64446715	          5.77133710	         44.05791791	         31.93193877	        -24.39804163	          0.05654296	         34.31513979	
          1.08000000	          1.61739130	         -6.26381005	         -9.94552699	        -20.34856370	         -7.39630980	         -6.15310330	         -7.03878482	         16.00784053	          5.65578914	         45.15400729	         32.54516431	        -25.72449334	          0.05265904	         34.31570215	
          1.09000000	          1.59068716	         -6.30214259	         -9.98754826	        -20.28477090	         -7.33294237	         -5.82356483	         -7.07960869	         16.38919589	          5.53369199	         46.22025348	         33.15018963	        -26.92044163	          0.04793083	         34.31634127	
          1.10000000	          1.56140071	         -6.34380715	        -10.03264985	        -20.21345192	         -7.26776519	         -5.47032390	         -7.12188056	         16.78631737	          5.40621570	         47.25135273	         33.74858802	        -27.98829249	          0.04280568	         34.31700377	
          1.11000000	          1.52974773	         -6.38812752	        -10.08066842	        -20.13517578	         -7.20167358	         -5.09556643	         -7.16563932	         17.19669376	          5.27437086	         48.24309234	         34.34213053	        -28.93342829	          0.03762679	         34.31764831	
          1.12000000	          1.49605817	         -6.43419133	        -10.13141774	        -20.05119526	         -7.13483629	         -4.70284914	         -7.21041689	         17.61780811	          5.13894607	         49.19321964	         34.93252080	        -29.76301228	          0.03256028	         34.31825476	
          1.13000000	          1.46073663	         -6.48092341	        -10.18469769	        -19.96348127	         -7.06682275	         -4.29700288	         -7.25539213	         18.04735375	          5.00052683	         50.10165554	         35.52121886	        -30.48509982	          0.02761474	         34.31882058	
          1.14000000	          1.42421428	         -6.52718020	        -10.24030443	        -19.87460530	         -6.99681364	         -3.88379737	         -7.29957846	         18.48337384	          4.85954917	         50.97020674	         36.10933370	        -31.10818083	          0.02274177	         34.31934890	
          1.15000000	          1.38689961	         -6.57185359	        -10.29803903	        -19.78747869	         -6.92381535	         -3.46938715	         -7.34199090	         18.92434594	          4.71634639	         51.80192808	         36.69756283	        -31.64105079	          0.01794414	         34.31983806	
          1.16000000	          1.34913260	         -6.61397730	        -10.35771309	        -19.70494959	         -6.84683677	         -3.05953310	         -7.38176801	         19.36923821	          4.57116074	         52.60020258	         37.28615597	        -32.09294191	          0.01333427	         34.32027705	
          1.17000000	          1.31114437	         -6.65282841	        -10.41915166	        -19.62931758	         -6.76505933	         -2.65869575	         -7.41827724	         19.81754098	          4.42413855	         53.36762018	         37.87488929	        -32.47386584	          0.00913664	         34.32064607	
          1.18000000	          1.27302603	         -6.68800924	        -10.48219281	        -19.56189975	         -6.67806200	         -2.26925386	         -7.45124668	         20.26922254	          4.27536672	         54.10488971	         38.46308347	        -32.79497182	          0.00565053	         34.32091952	
          1.19000000	          1.23471685	         -6.71948524	        -10.54668090	        -19.50280270	         -6.58601916	         -1.89115702	         -7.48086235	         20.72457507	          4.12494815	         54.81027324	         39.04970568	        -33.06849501	          0.00317926	         34.32107178	
          1.20000000	          1.19602427	         -6.74755547	        -10.61244903	        -19.45101628	         -6.48966195	         -1.52222031	         -7.50769386	         21.18401085	          3.97303316	         55.48004852	         39.63353303	        -33.30685207	          0.00193090	         34.32108813	
          1.21000000	          1.15667620	         -6.77275490	        -10.67929107	        -19.40483392	         -6.38996251	         -1.15902829	         -7.53243714	         21.64788708	          3.81977645	         56.10995638	         40.21333010	        -33.52092194	          0.00191833	         34.32097674	
          1.22000000	          1.11638898	         -6.79572085	        -10.74693007	        -19.36243082	         -6.28776393	         -0.79811232	         -7.55563407	         22.11635707	          3.66529375	         56.69689076	         40.78803461	        -33.71814797	          0.00289604	         34.32077403	
          1.23000000	          1.07493052	         -6.81706707	        -10.81499150	        -19.32234391	         -6.18357353	         -0.43694103	         -7.57750945	         22.58920377	          3.50968255	         57.23999930	         41.35696435	        -33.90122968	          0.00435865	         34.32054091	
          1.24000000	          1.03216926	         -6.83729131	        -10.88298426	        -19.28371762	         -6.07751799	         -0.07447350	         -7.59792100	         23.06567691	          3.35307847	         57.74093146	         41.92000410	        -34.06788325	          0.00562759	         34.32035025	
          1.25000000	          0.98810883	         -6.85672027	        -10.95028976	        -19.24635871	         -5.96937093	          0.28869582	         -7.61637658	         23.54442806	          3.19569177	         58.20346532	         42.47767834	        -34.21174996	          0.00603208	         34.32026788	
          1.26000000	          0.94290654	         -6.87549593	        -11.01615892	        -19.21065218	         -5.85865342	          0.65055886	         -7.63213420	         24.02361111	          3.03781708	         58.63271150	         43.03105383	        -34.32424553	          0.00510794	         34.32033477	
          1.27000000	          0.89687185	         -6.89360885	        -11.07971792	        -19.17733567	         -5.74484772	          1.00827275	         -7.64440327	         24.50110770	          2.87984240	         59.03398421	         43.58152021	        -34.39696912	          0.00271046	         34.32055834	
          1.28000000	          0.85044828	         -6.91096723	        -11.13998038	        -19.14719962	         -5.62769733	          1.35890057	         -7.65260495	         24.97476565	          2.72227987	         59.41162423	         44.13055599	        -34.42406132	         -0.00096950	         34.32091287	
          1.29000000	          0.80418946	         -6.92747654	        -11.19586125	        -19.12083423	         -5.50745706	          1.70004313	         -7.65658566	         25.44260276	          2.56578799	         59.76820159	         44.67953446	        -34.40385553	         -0.00543876	         34.32134419	
          1.30000000	          0.75873971	         -6.94310848	        -11.24618715	        -19.09847598	         -5.38491730	          2.03027258	         -7.65666799	         25.90303303	          2.41110621	         60.10433815	         45.22953663	        -34.33939672	         -0.00997249	         34.32177707	
          1.31000000	          0.71482392	         -6.95794632	        -11.28970067	        -19.07995386	         -5.26117270	          2.34938557	         -7.65352503	         26.35515171	          2.25888380	         60.41910064	         45.78113487	        -34.23754757	         -0.01372218	         34.32212622	
          1.32000000	          0.67324590	         -6.97219878	        -11.32505871	        -19.06473390	         -5.13729279	          2.65845493	         -7.64798055	         26.79899801	          2.10949089	         60.71074104	         46.33419009	        -34.10669653	         -0.01584265	         34.32230998	
          1.33000000	          0.63489110	         -6.98618279	        -11.35082593	        -19.05204710	         -5.01407794	          2.95964887	         -7.64084583	         27.23566375	          1.96291633	         60.97752136	         46.88775288	        -33.95376527	         -0.01562117	         34.32226312	
